<?xml version="1.0" standalone="no"?>
<!DOCTYPE svg PUBLIC "-//W3C//DTD SVG 20010904//EN"
 "http://www.w3.org/TR/2001/REC-SVG-20010904/DTD/svg10.dtd">
<svg version="1.0" xmlns="http://www.w3.org/2000/svg"
 width="162.000000pt" height="155.000000pt" viewBox="0 0 162.000000 155.000000"
 preserveAspectRatio="xMidYMid meet">

<g transform="translate(0.000000,155.000000) scale(0.100000,-0.100000)"
fill="#000000" stroke="none">
<path d="M214 1418 c-23 -11 -44 -48 -44 -78 0 -10 14 -30 30 -43 l30 -26 0
-240 c0 -234 1 -241 20 -241 19 0 20 7 20 244 0 231 1 245 19 251 47 15 47 96
-1 129 -26 18 -44 19 -74 4z m66 -43 c26 -32 -13 -81 -47 -59 -35 22 -23 74
17 74 10 0 23 -7 30 -15z"/>
<path d="M735 1418 c-53 -31 -60 -84 -15 -121 28 -24 30 -30 30 -96 l0 -71
-119 0 c-119 0 -119 0 -149 30 -33 32 -51 36 -85 18 -54 -28 -61 -76 -18 -119
37 -37 65 -37 103 1 30 30 30 30 149 30 l119 0 0 -66 c0 -60 -3 -68 -30 -94
-39 -37 -39 -72 0 -112 25 -24 36 -29 58 -23 67 16 88 89 39 131 l-27 23 0
161 0 161 27 23 c36 32 36 81 -1 113 -30 25 -51 28 -81 11z m65 -43 c26 -32
-13 -81 -47 -59 -35 22 -23 74 17 74 10 0 23 -7 30 -15z m-340 -240 c26 -32
-13 -81 -47 -59 -35 22 -23 74 17 74 10 0 23 -7 30 -15z m340 -240 c15 -18 10
-45 -12 -59 -33 -20 -69 20 -54 60 7 18 50 18 66 -1z"/>
<path d="M1310 1400 c-27 -29 -31 -30 -114 -30 -79 0 -86 -2 -86 -20 0 -18 7
-20 85 -20 84 0 87 -1 120 -34 l35 -33 0 -152 0 -153 -30 -28 c-52 -48 -33
-119 36 -136 68 -17 115 90 59 135 l-27 20 2 162 c1 159 1 162 25 181 36 28
35 89 -1 117 -37 29 -71 26 -104 -9z m88 -22 c30 -30 0 -75 -43 -64 -19 5 -25
13 -25 35 0 15 3 31 7 34 11 11 48 8 61 -5z m2 -483 c27 -32 -23 -82 -55 -55
-15 13 -20 51 -8 63 12 12 50 7 63 -8z"/>
<path d="M370 1350 c0 -13 7 -20 20 -20 13 0 20 7 20 20 0 13 -7 20 -20 20
-13 0 -20 -7 -20 -20z"/>
<path d="M450 1350 c0 -13 7 -20 20 -20 13 0 20 7 20 20 0 13 -7 20 -20 20
-13 0 -20 -7 -20 -20z"/>
<path d="M950 1350 c0 -13 7 -20 20 -20 13 0 20 7 20 20 0 13 -7 20 -20 20
-13 0 -20 -7 -20 -20z"/>
<path d="M1030 1350 c0 -13 7 -20 20 -20 13 0 20 7 20 20 0 13 -7 20 -20 20
-13 0 -20 -7 -20 -20z"/>
<path d="M1230 1230 c0 -13 7 -20 20 -20 13 0 20 7 20 20 0 13 -7 20 -20 20
-13 0 -20 -7 -20 -20z"/>
<path d="M950 1109 c0 -14 5 -19 17 -17 26 5 29 38 4 38 -15 0 -21 -6 -21 -21z"/>
<path d="M1135 1085 c-41 -40 -30 -96 22 -124 75 -40 144 70 79 126 -35 30
-71 29 -101 -2z m85 -30 c10 -12 10 -21 2 -40 -19 -42 -72 -26 -72 21 0 34 47
46 70 19z"/>
<path d="M870 1030 c0 -13 7 -20 20 -20 13 0 20 7 20 20 0 13 -7 20 -20 20
-13 0 -20 -7 -20 -20z"/>
<path d="M950 1030 c0 -13 7 -20 20 -20 13 0 20 7 20 20 0 13 -7 20 -20 20
-13 0 -20 -7 -20 -20z"/>
<path d="M1030 1030 c0 -13 7 -20 20 -20 13 0 20 7 20 20 0 13 -7 20 -20 20
-13 0 -20 -7 -20 -20z"/>
<path d="M410 950 c0 -13 7 -20 20 -20 13 0 20 7 20 20 0 13 -7 20 -20 20 -13
0 -20 -7 -20 -20z"/>
<path d="M410 870 c0 -13 7 -20 20 -20 13 0 20 7 20 20 0 13 -7 20 -20 20 -13
0 -20 -7 -20 -20z"/>
<path d="M490 870 c0 -13 7 -20 20 -20 13 0 20 7 20 20 0 13 -7 20 -20 20 -13
0 -20 -7 -20 -20z"/>
<path d="M570 870 c0 -13 7 -20 20 -20 13 0 20 7 20 20 0 13 -7 20 -20 20 -13
0 -20 -7 -20 -20z"/>
<path d="M199 721 c-35 -36 -37 -61 -6 -97 32 -37 81 -37 113 -1 l23 27 291 0
291 0 23 -27 c54 -63 155 -4 125 74 -13 34 -37 52 -71 53 -27 0 -68 -30 -68
-50 0 -6 -107 -10 -300 -10 -193 0 -300 4 -300 10 0 19 -40 50 -66 50 -15 0
-38 -12 -55 -29z m79 -23 c32 -32 -18 -87 -53 -58 -28 23 -12 70 25 70 9 0 21
-5 28 -12z m742 -3 c27 -32 -23 -82 -55 -55 -15 13 -20 51 -8 63 12 12 50 7
63 -8z"/>
<path d="M1110 729 c0 -25 33 -22 38 4 2 12 -3 17 -17 17 -15 0 -21 -6 -21
-21z"/>
<path d="M1190 729 c0 -14 5 -19 17 -17 26 5 29 38 4 38 -15 0 -21 -6 -21 -21z"/>
<path d="M1270 729 c0 -25 33 -22 38 4 2 12 -3 17 -17 17 -15 0 -21 -6 -21
-21z"/>
<path d="M1350 534 l0 -215 -36 -35 -37 -34 -218 0 c-139 0 -219 4 -219 10 0
21 -41 50 -70 50 -38 0 -80 -39 -80 -73 0 -70 86 -102 136 -52 l25 25 221 0
220 0 20 -25 c24 -31 86 -35 111 -7 32 35 31 67 -2 105 l-31 35 0 216 c0 209
-1 216 -20 216 -19 0 -20 -7 -20 -216z m-550 -279 c27 -32 -23 -82 -55 -55
-15 13 -20 51 -8 63 12 12 50 7 63 -8z m604 -7 c16 -26 -26 -68 -52 -52 -19
12 -27 37 -18 60 8 20 56 14 70 -8z"/>
<path d="M1110 649 c0 -25 33 -22 38 4 2 12 -3 17 -17 17 -15 0 -21 -6 -21
-21z"/>
<path d="M750 530 c0 -13 7 -20 20 -20 13 0 20 7 20 20 0 13 -7 20 -20 20 -13
0 -20 -7 -20 -20z"/>
<path d="M1110 529 c0 -25 33 -22 38 4 2 12 -3 17 -17 17 -15 0 -21 -6 -21
-21z"/>
<path d="M515 505 c-31 -30 -32 -66 -2 -101 57 -66 166 3 126 79 -28 52 -84
63 -124 22z m85 -30 c15 -18 10 -45 -12 -59 -33 -20 -69 20 -54 60 7 18 50 18
66 -1z"/>
<path d="M230 450 c0 -13 7 -20 20 -20 13 0 20 7 20 20 0 13 -7 20 -20 20 -13
0 -20 -7 -20 -20z"/>
<path d="M410 450 c0 -13 7 -20 20 -20 13 0 20 7 20 20 0 13 -7 20 -20 20 -13
0 -20 -7 -20 -20z"/>
<path d="M750 450 c0 -13 7 -20 20 -20 13 0 20 7 20 20 0 13 -7 20 -20 20 -13
0 -20 -7 -20 -20z"/>
<path d="M950 449 c0 -25 33 -22 38 4 2 12 -3 17 -17 17 -15 0 -21 -6 -21 -21z"/>
<path d="M1030 449 c0 -25 33 -22 38 4 2 12 -3 17 -17 17 -15 0 -21 -6 -21
-21z"/>
<path d="M1110 449 c0 -25 33 -22 38 4 2 12 -3 17 -17 17 -15 0 -21 -6 -21
-21z"/>
<path d="M1190 450 c0 -13 7 -20 20 -20 13 0 20 7 20 20 0 13 -7 20 -20 20
-13 0 -20 -7 -20 -20z"/>
<path d="M230 370 c0 -13 7 -20 20 -20 13 0 20 7 20 20 0 13 -7 20 -20 20 -13
0 -20 -7 -20 -20z"/>
<path d="M750 370 c0 -13 7 -20 20 -20 13 0 20 7 20 20 0 13 -7 20 -20 20 -13
0 -20 -7 -20 -20z"/>
<path d="M1030 369 c0 -25 33 -22 38 4 2 12 -3 17 -17 17 -15 0 -21 -6 -21
-21z"/>
<path d="M195 285 c-49 -48 -16 -125 54 -125 61 0 95 55 67 108 -25 49 -82 57
-121 17z m91 -40 c6 -26 -9 -55 -30 -55 -28 0 -49 27 -42 53 5 22 12 27 36 27
23 0 31 -5 36 -25z"/>
<path d="M370 230 c0 -13 7 -20 20 -20 13 0 20 7 20 20 0 13 -7 20 -20 20 -13
0 -20 -7 -20 -20z"/>
<path d="M450 230 c0 -13 7 -20 20 -20 13 0 20 7 20 20 0 13 -7 20 -20 20 -13
0 -20 -7 -20 -20z"/>
<path d="M530 230 c0 -13 7 -20 20 -20 13 0 20 7 20 20 0 13 -7 20 -20 20 -13
0 -20 -7 -20 -20z"/>
<path d="M610 230 c0 -13 7 -20 20 -20 13 0 20 7 20 20 0 13 -7 20 -20 20 -13
0 -20 -7 -20 -20z"/>
</g>
</svg>
