<svg width="162" height="155" xmlns="http://www.w3.org/2000/svg" preserveAspectRatio="xMidYMid meet" version="1.0">

 <g>
  <title>Слой 1</title>
  <g id="svg_1" fill="#000000" transform="translate(0.000000,155.000000) scale(0.100000,-0.100000)">
   <path fill="#7918a0" id="svg_2" d="m214,1418c-23,-11 -44,-48 -44,-78c0,-10 14,-30 30,-43l30,-26l0,-240c0,-234 1,-241 20,-241c19,0 20,7 20,244c0,231 1,245 19,251c47,15 47,96 -1,129c-26,18 -44,19 -74,4zm66,-43c26,-32 -13,-81 -47,-59c-35,22 -23,74 17,74c10,0 23,-7 30,-15z"/>
   <path fill="#7918a0" id="svg_3" d="m735,1418c-53,-31 -60,-84 -15,-121c28,-24 30,-30 30,-96l0,-71l-119,0c-119,0 -119,0 -149,30c-33,32 -51,36 -85,18c-54,-28 -61,-76 -18,-119c37,-37 65,-37 103,1c30,30 30,30 149,30l119,0l0,-66c0,-60 -3,-68 -30,-94c-39,-37 -39,-72 0,-112c25,-24 36,-29 58,-23c67,16 88,89 39,131l-27,23l0,161l0,161l27,23c36,32 36,81 -1,113c-30,25 -51,28 -81,11zm65,-43c26,-32 -13,-81 -47,-59c-35,22 -23,74 17,74c10,0 23,-7 30,-15zm-340,-240c26,-32 -13,-81 -47,-59c-35,22 -23,74 17,74c10,0 23,-7 30,-15zm340,-240c15,-18 10,-45 -12,-59c-33,-20 -69,20 -54,60c7,18 50,18 66,-1z"/>
   <path fill="#7918a0" id="svg_4" d="m1310,1400c-27,-29 -31,-30 -114,-30c-79,0 -86,-2 -86,-20c0,-18 7,-20 85,-20c84,0 87,-1 120,-34l35,-33l0,-152l0,-153l-30,-28c-52,-48 -33,-119 36,-136c68,-17 115,90 59,135l-27,20l2,162c1,159 1,162 25,181c36,28 35,89 -1,117c-37,29 -71,26 -104,-9zm88,-22c30,-30 0,-75 -43,-64c-19,5 -25,13 -25,35c0,15 3,31 7,34c11,11 48,8 61,-5zm2,-483c27,-32 -23,-82 -55,-55c-15,13 -20,51 -8,63c12,12 50,7 63,-8z"/>
   <path fill="#7918a0" id="svg_5" d="m370,1350c0,-13 7,-20 20,-20c13,0 20,7 20,20c0,13 -7,20 -20,20c-13,0 -20,-7 -20,-20z"/>
   <path fill="#7918a0" id="svg_6" d="m450,1350c0,-13 7,-20 20,-20c13,0 20,7 20,20c0,13 -7,20 -20,20c-13,0 -20,-7 -20,-20z"/>
   <path fill="#7918a0" id="svg_7" d="m950,1350c0,-13 7,-20 20,-20c13,0 20,7 20,20c0,13 -7,20 -20,20c-13,0 -20,-7 -20,-20z"/>
   <path fill="#7918a0" id="svg_8" d="m1030,1350c0,-13 7,-20 20,-20c13,0 20,7 20,20c0,13 -7,20 -20,20c-13,0 -20,-7 -20,-20z"/>
   <path fill="#7918a0" id="svg_9" d="m1230,1230c0,-13 7,-20 20,-20c13,0 20,7 20,20c0,13 -7,20 -20,20c-13,0 -20,-7 -20,-20z"/>
   <path fill="#7918a0" id="svg_10" d="m950,1109c0,-14 5,-19 17,-17c26,5 29,38 4,38c-15,0 -21,-6 -21,-21z"/>
   <path fill="#7918a0" id="svg_11" d="m1135,1085c-41,-40 -30,-96 22,-124c75,-40 144,70 79,126c-35,30 -71,29 -101,-2zm85,-30c10,-12 10,-21 2,-40c-19,-42 -72,-26 -72,21c0,34 47,46 70,19z"/>
   <path fill="#7918a0" id="svg_12" d="m870,1030c0,-13 7,-20 20,-20c13,0 20,7 20,20c0,13 -7,20 -20,20c-13,0 -20,-7 -20,-20z"/>
   <path fill="#7918a0" id="svg_13" d="m950,1030c0,-13 7,-20 20,-20c13,0 20,7 20,20c0,13 -7,20 -20,20c-13,0 -20,-7 -20,-20z"/>
   <path fill="#7918a0" id="svg_14" d="m1030,1030c0,-13 7,-20 20,-20c13,0 20,7 20,20c0,13 -7,20 -20,20c-13,0 -20,-7 -20,-20z"/>
   <path fill="#7918a0" id="svg_15" d="m410,950c0,-13 7,-20 20,-20c13,0 20,7 20,20c0,13 -7,20 -20,20c-13,0 -20,-7 -20,-20z"/>
   <path fill="#7918a0" id="svg_16" d="m410,870c0,-13 7,-20 20,-20c13,0 20,7 20,20c0,13 -7,20 -20,20c-13,0 -20,-7 -20,-20z"/>
   <path fill="#7918a0" id="svg_17" d="m490,870c0,-13 7,-20 20,-20c13,0 20,7 20,20c0,13 -7,20 -20,20c-13,0 -20,-7 -20,-20z"/>
   <path fill="#7918a0" id="svg_18" d="m570,870c0,-13 7,-20 20,-20c13,0 20,7 20,20c0,13 -7,20 -20,20c-13,0 -20,-7 -20,-20z"/>
   <path fill="#7918a0" id="svg_19" d="m199,721c-35,-36 -37,-61 -6,-97c32,-37 81,-37 113,-1l23,27l291,0l291,0l23,-27c54,-63 155,-4 125,74c-13,34 -37,52 -71,53c-27,0 -68,-30 -68,-50c0,-6 -107,-10 -300,-10c-193,0 -300,4 -300,10c0,19 -40,50 -66,50c-15,0 -38,-12 -55,-29zm79,-23c32,-32 -18,-87 -53,-58c-28,23 -12,70 25,70c9,0 21,-5 28,-12zm742,-3c27,-32 -23,-82 -55,-55c-15,13 -20,51 -8,63c12,12 50,7 63,-8z"/>
   <path fill="#7918a0" id="svg_20" d="m1110,729c0,-25 33,-22 38,4c2,12 -3,17 -17,17c-15,0 -21,-6 -21,-21z"/>
   <path fill="#7918a0" id="svg_21" d="m1190,729c0,-14 5,-19 17,-17c26,5 29,38 4,38c-15,0 -21,-6 -21,-21z"/>
   <path fill="#7918a0" id="svg_22" d="m1270,729c0,-25 33,-22 38,4c2,12 -3,17 -17,17c-15,0 -21,-6 -21,-21z"/>
   <path fill="#7918a0" id="svg_23" d="m1350,534l0,-215l-36,-35l-37,-34l-218,0c-139,0 -219,4 -219,10c0,21 -41,50 -70,50c-38,0 -80,-39 -80,-73c0,-70 86,-102 136,-52l25,25l221,0l220,0l20,-25c24,-31 86,-35 111,-7c32,35 31,67 -2,105l-31,35l0,216c0,209 -1,216 -20,216c-19,0 -20,-7 -20,-216zm-550,-279c27,-32 -23,-82 -55,-55c-15,13 -20,51 -8,63c12,12 50,7 63,-8zm604,-7c16,-26 -26,-68 -52,-52c-19,12 -27,37 -18,60c8,20 56,14 70,-8z"/>
   <path fill="#7918a0" id="svg_24" d="m1110,649c0,-25 33,-22 38,4c2,12 -3,17 -17,17c-15,0 -21,-6 -21,-21z"/>
   <path fill="#7918a0" id="svg_25" d="m750,530c0,-13 7,-20 20,-20c13,0 20,7 20,20c0,13 -7,20 -20,20c-13,0 -20,-7 -20,-20z"/>
   <path fill="#7918a0" id="svg_26" d="m1110,529c0,-25 33,-22 38,4c2,12 -3,17 -17,17c-15,0 -21,-6 -21,-21z"/>
   <path fill="#7918a0" id="svg_27" d="m515,505c-31,-30 -32,-66 -2,-101c57,-66 166,3 126,79c-28,52 -84,63 -124,22zm85,-30c15,-18 10,-45 -12,-59c-33,-20 -69,20 -54,60c7,18 50,18 66,-1z"/>
   <path fill="#7918a0" id="svg_28" d="m230,450c0,-13 7,-20 20,-20c13,0 20,7 20,20c0,13 -7,20 -20,20c-13,0 -20,-7 -20,-20z"/>
   <path fill="#7918a0" id="svg_29" d="m410,450c0,-13 7,-20 20,-20c13,0 20,7 20,20c0,13 -7,20 -20,20c-13,0 -20,-7 -20,-20z"/>
   <path fill="#7918a0" id="svg_30" d="m750,450c0,-13 7,-20 20,-20c13,0 20,7 20,20c0,13 -7,20 -20,20c-13,0 -20,-7 -20,-20z"/>
   <path fill="#7918a0" id="svg_31" d="m950,449c0,-25 33,-22 38,4c2,12 -3,17 -17,17c-15,0 -21,-6 -21,-21z"/>
   <path fill="#7918a0" id="svg_32" d="m1030,449c0,-25 33,-22 38,4c2,12 -3,17 -17,17c-15,0 -21,-6 -21,-21z"/>
   <path fill="#7918a0" id="svg_33" d="m1110,449c0,-25 33,-22 38,4c2,12 -3,17 -17,17c-15,0 -21,-6 -21,-21z"/>
   <path fill="#7918a0" id="svg_34" d="m1190,450c0,-13 7,-20 20,-20c13,0 20,7 20,20c0,13 -7,20 -20,20c-13,0 -20,-7 -20,-20z"/>
   <path fill="#7918a0" id="svg_35" d="m230,370c0,-13 7,-20 20,-20c13,0 20,7 20,20c0,13 -7,20 -20,20c-13,0 -20,-7 -20,-20z"/>
   <path fill="#7918a0" id="svg_36" d="m750,370c0,-13 7,-20 20,-20c13,0 20,7 20,20c0,13 -7,20 -20,20c-13,0 -20,-7 -20,-20z"/>
   <path fill="#7918a0" id="svg_37" d="m1030,369c0,-25 33,-22 38,4c2,12 -3,17 -17,17c-15,0 -21,-6 -21,-21z"/>
   <path fill="#7918a0" id="svg_38" d="m195,285c-49,-48 -16,-125 54,-125c61,0 95,55 67,108c-25,49 -82,57 -121,17zm91,-40c6,-26 -9,-55 -30,-55c-28,0 -49,27 -42,53c5,22 12,27 36,27c23,0 31,-5 36,-25z"/>
   <path fill="#7918a0" id="svg_39" d="m370,230c0,-13 7,-20 20,-20c13,0 20,7 20,20c0,13 -7,20 -20,20c-13,0 -20,-7 -20,-20z"/>
   <path fill="#7918a0" id="svg_40" d="m450,230c0,-13 7,-20 20,-20c13,0 20,7 20,20c0,13 -7,20 -20,20c-13,0 -20,-7 -20,-20z"/>
   <path fill="#7918a0" id="svg_41" d="m530,230c0,-13 7,-20 20,-20c13,0 20,7 20,20c0,13 -7,20 -20,20c-13,0 -20,-7 -20,-20z"/>
   <path fill="#7918a0" id="svg_42" d="m610,230c0,-13 7,-20 20,-20c13,0 20,7 20,20c0,13 -7,20 -20,20c-13,0 -20,-7 -20,-20z"/>
  </g>
 </g>
</svg>